<svg width="1962" height="1199" viewBox="0 0 1962 1199" fill="none" xmlns="http://www.w3.org/2000/svg">
<path d="M1090 218H872V327H763V436H654V654H545V872H1308V763H1417V545H1526V327H1417V218H1199V327H1090V218Z" fill="#14A02E"/>
<rect x="872" y="436" width="109" height="109" fill="white"/>
<rect x="1090" y="436" width="218" height="109" fill="white"/>
<rect x="981" y="436" width="109" height="109" fill="#060608"/>
<rect x="1308" y="436" width="109" height="109" fill="#060608"/>
<rect x="981" y="654" width="436" height="109" fill="#B4202A"/>
<rect x="545" y="872" width="872" height="109" fill="#285CC4"/>
<rect x="1526" y="654" width="109" height="218" fill="#14A02E"/>
<rect width="109" height="109" transform="matrix(-1 0 0 1 1526 872)" fill="#14A02E"/>
<rect width="109" height="109" transform="matrix(-1 0 0 1 545 763)" fill="#285CC4"/>
<rect width="109" height="109" transform="matrix(-1 0 0 1 436 654)" fill="#14A02E"/>
<rect width="109" height="109" transform="matrix(-1 0 0 1 327 545)" fill="#14A02E"/>
<rect width="109" height="109" transform="matrix(-1 0 0 1 218 436)" fill="#14A02E"/>
</svg>
